<svg width="13" height="13" viewBox="0 0 13 13" fill="none" xmlns="http://www.w3.org/2000/svg">
<path d="M3.51048 12.9995H0.975615V4.83701H3.51048V12.9995ZM2.24152 3.72359C1.43106 3.72359 0.773438 3.05205 0.773438 2.24165C0.773438 1.43126 1.43062 0.773682 2.24152 0.773682C3.05241 0.773682 3.7096 1.43082 3.7096 2.24165C3.7096 3.05205 3.05198 3.72359 2.24152 3.72359ZM12.9975 12.9995H10.4684V9.0261C10.4684 8.07903 10.4491 6.86475 9.15049 6.86475C7.83263 6.86475 7.63045 7.89346 7.63045 8.95798V12.9995H5.09821V4.83701H7.52914V5.95043H7.56451C7.90293 5.30902 8.72954 4.63223 9.9627 4.63223C12.5281 4.63223 12.9997 6.32158 12.9997 8.51567V12.9995H12.9975Z" fill="#302E44"/>
</svg>
