<svg width="555" height="408" viewBox="0 0 555 408" fill="none" xmlns="http://www.w3.org/2000/svg">
<g clip-path="url(#clip0_2931_898)">
<path d="M39.4053 408V361.67C39.4053 361.67 21.3488 394.516 39.4053 408Z" fill="#F1F1F1"/>
<path d="M38.2904 407.992L72.4219 376.66C72.4219 376.66 36.0131 385.573 38.2904 407.992Z" fill="#F1F1F1"/>
<path d="M185.739 285.62C185.815 284.772 185.704 283.917 185.414 283.117C185.124 282.316 184.662 281.589 184.061 280.986C183.459 280.383 182.733 279.919 181.933 279.628C181.132 279.336 180.278 279.223 179.43 279.297L173.277 267.493L165.191 269.483L174.114 286.03C174.333 287.447 175.065 288.735 176.17 289.648C177.275 290.562 178.676 291.039 180.109 290.988C181.542 290.938 182.907 290.363 183.944 289.374C184.982 288.384 185.621 287.049 185.739 285.62Z" fill="#FFB7B7"/>
<path d="M149.012 400.616L155.835 400.616L159.081 374.3L149.011 374.301L149.012 400.616Z" fill="#FFB7B7"/>
<path d="M147.271 407.229L169.271 407.228V406.95C169.271 404.679 168.369 402.501 166.763 400.896C165.157 399.29 162.979 398.388 160.708 398.388L147.271 398.388L147.271 407.229Z" fill="#CBCBCB"/>
<path d="M94.1361 395.519L100.719 397.314L110.775 372.78L101.06 370.131L94.1361 395.519Z" fill="#FFB7B7"/>
<path d="M90.7175 401.442L111.943 407.229L112.016 406.961C112.613 404.77 112.316 402.431 111.189 400.46C110.062 398.488 108.198 397.045 106.008 396.447L93.0435 392.912L90.7175 401.442Z" fill="#CBCBCB"/>
<path d="M161.468 286.941L164.871 338.621L157.56 396.603L145.585 392.948L145.08 341.142L135.5 311.268L107.137 391.057L94.1533 386.268L104.868 334.461L110.919 285.807L161.468 286.941Z" fill="#4D4A7B"/>
<path d="M128.379 196.191L148.546 199.164L155.811 206.349L158.066 232.163L156.665 255.028L162.506 295.35C162.506 295.35 147.819 287.198 136.438 297.403C125.056 307.608 109.13 299.206 108.802 292.417L128.379 196.191Z" fill="#CBCBCB"/>
<path d="M138.62 228.566L138.62 228.537L128.602 195.884L128.473 195.876C127.76 195.83 110.964 194.84 107.207 203.132L107.189 203.172L108.33 237.105L106.758 290.249L137.822 296.976L138.048 297.026L138.62 228.566Z" fill="#7E7E7E"/>
<path d="M149.722 226.309L147.884 198.628C160.954 199.441 160.757 208.707 160.742 209.111L160.885 250.516L163.503 294.812L153.985 294.098L149.722 226.309Z" fill="#7E7E7E"/>
<path d="M179.194 276.676L167.59 249.747L159.491 234.875L155.262 261.702L169.944 283.723L179.194 276.676Z" fill="#7E7E7E"/>
<path d="M131.238 266.768C131.06 265.935 130.702 265.151 130.189 264.472C129.676 263.792 129.019 263.233 128.267 262.835C127.514 262.436 126.683 262.208 125.833 262.165C124.982 262.122 124.133 262.267 123.344 262.588L113.982 253.124L106.843 257.41L120.251 270.589C120.879 271.878 121.957 272.893 123.283 273.44C124.608 273.987 126.088 274.029 127.442 273.558C128.796 273.087 129.931 272.136 130.63 270.884C131.33 269.633 131.546 268.168 131.238 266.768Z" fill="#FFB7B7"/>
<path d="M123.365 259.133L104.278 238.195L116.912 220.168L115.612 211.354L108.165 202.156L108.02 202.343C107.226 203.37 88.5733 227.602 88.0381 236.775C87.501 245.983 114.312 269.273 115.453 270.259L115.612 270.397L123.365 259.133Z" fill="#7E7E7E"/>
<path d="M140.016 193.923C132.523 193.923 126.449 187.849 126.449 180.357C126.449 172.865 132.523 166.792 140.016 166.792C147.508 166.792 153.582 172.865 153.582 180.357C153.582 187.849 147.508 193.923 140.016 193.923Z" fill="#FFB7B7"/>
<path d="M127.257 169.512L126.599 168.189L129.908 166.544C129.908 166.544 133.559 160.605 140.165 162.274C146.771 163.943 149.744 164.942 149.744 164.942L153.044 166.603L151.388 168.251L154.36 169.25L152.374 170.237L154.685 171.565L153.441 178.371C153.441 178.371 151.375 173.209 147.404 175.182C143.433 177.154 136.169 174.162 136.169 174.162L129.858 186.374C129.858 186.374 128.556 182.093 126.235 183.235C126.235 183.235 120.305 173.791 127.257 169.512Z" fill="black"/>
<path d="M280.762 246.314L487.065 303.206L555 56.8917L348.697 0L280.762 246.314Z" fill="white"/>
<path d="M280.762 246.314L487.065 303.206L555 56.8917L348.697 0L280.762 246.314ZM484.43 298.563L285.405 243.678L351.332 4.6429L550.357 59.5273L484.43 298.563Z" fill="#F1F1F1"/>
<path d="M393.593 110.345L445.306 124.606C446.036 124.806 446.815 124.709 447.473 124.335C448.131 123.962 448.614 123.343 448.816 122.614L463.078 70.9034C463.278 70.1739 463.181 69.3948 462.807 68.7369C462.434 68.0791 461.815 67.5962 461.086 67.3943L409.372 53.1333C408.642 52.933 407.863 53.0303 407.205 53.4037C406.547 53.7772 406.064 54.3963 405.862 55.1253L391.6 106.836C391.4 107.565 391.497 108.344 391.871 109.002C392.244 109.66 392.864 110.143 393.593 110.345ZM460.782 68.4945C461.22 68.6157 461.591 68.9054 461.815 69.3001C462.039 69.6948 462.098 70.1623 461.978 70.6L447.716 122.31C447.594 122.748 447.305 123.119 446.91 123.343C446.515 123.567 446.048 123.626 445.61 123.505L393.896 109.244C393.459 109.123 393.087 108.834 392.863 108.439C392.639 108.044 392.581 107.577 392.701 107.139L406.963 55.4288C407.084 54.9914 407.374 54.6199 407.768 54.3958C408.163 54.1717 408.631 54.1134 409.068 54.2336L460.782 68.4945Z" fill="#E5E5E5"/>
<path d="M406.702 120.767L458.416 135.028C459.072 135.208 459.773 135.121 460.365 134.785C460.958 134.449 461.392 133.891 461.574 133.235L475.836 81.5251C476.016 80.8686 475.929 80.1674 475.593 79.5753C475.256 78.9832 474.699 78.5486 474.043 78.3669L422.329 64.1059C421.673 63.9257 420.971 64.0132 420.379 64.3493C419.787 64.6854 419.353 65.2426 419.171 65.8987L404.909 117.609C404.729 118.265 404.816 118.967 405.152 119.559C405.488 120.151 406.046 120.585 406.702 120.767Z" fill="#00EA99"/>
<path d="M346.794 127.826L491.107 167.623L489.569 173.2L345.256 133.403L346.794 127.826Z" fill="#F1F1F1"/>
<path d="M342.784 142.366L487.097 182.163L485.559 187.739L341.246 147.942L342.784 142.366Z" fill="#F1F1F1"/>
<path d="M338.774 156.905L483.087 196.702L481.549 202.278L337.236 162.482L338.774 156.905Z" fill="#F1F1F1"/>
<path d="M331.716 182.494L476.029 222.291L474.491 227.868L330.178 188.071L331.716 182.494Z" fill="#F1F1F1"/>
<path d="M327.706 197.034L472.02 236.831L470.482 242.407L326.168 202.61L327.706 197.034Z" fill="#F1F1F1"/>
<path d="M323.697 211.573L468.01 251.37L466.472 256.946L322.159 217.149L323.697 211.573Z" fill="#F1F1F1"/>
<path d="M214.722 302.383H428.728V46.8734H214.722V302.383Z" fill="white"/>
<path d="M214.722 302.383H428.728V46.8734H214.722V302.383ZM424.952 298.608H218.498V50.6485H424.952V298.608Z" fill="#E5E5E5"/>
<path d="M253.686 156.714H376.042V162.498H253.686V156.714Z" fill="#00EA99"/>
<path d="M253.686 171.754H376.042V177.538H253.686V171.754Z" fill="#00EA99"/>
<path d="M253.686 186.793H376.042V192.578H253.686V186.793Z" fill="#00EA99"/>
<path d="M385.989 164.228C383.904 164.228 382.214 162.538 382.214 160.453C382.214 158.368 383.904 156.678 385.989 156.678C388.074 156.678 389.765 158.368 389.765 160.453C389.765 162.538 388.074 164.228 385.989 164.228Z" fill="#00EA99"/>
<path d="M253.686 91.9072H376.042V97.6918H253.686V91.9072Z" fill="#E5E5E5"/>
<path d="M253.686 106.947H376.042V112.732H253.686V106.947Z" fill="#E5E5E5"/>
<path d="M253.686 121.987H376.042V127.772H253.686V121.987Z" fill="#E5E5E5"/>
<path d="M385.989 98.7929C383.904 98.7929 382.214 97.1027 382.214 95.0178C382.214 92.9329 383.904 91.2427 385.989 91.2427C388.074 91.2427 389.765 92.9329 389.765 95.0178C389.765 97.1027 388.074 98.7929 385.989 98.7929Z" fill="#E5E5E5"/>
<path d="M253.686 222.149H376.042V227.934H253.686V222.149Z" fill="#E5E5E5"/>
<path d="M253.686 237.189H376.042V242.974H253.686V237.189Z" fill="#E5E5E5"/>
<path d="M253.686 252.229H376.042V258.014H253.686V252.229Z" fill="#E5E5E5"/>
<path d="M385.989 229.035C383.904 229.035 382.214 227.345 382.214 225.26C382.214 223.175 383.904 221.485 385.989 221.485C388.074 221.485 389.765 223.175 389.765 225.26C389.765 227.345 388.074 229.035 385.989 229.035Z" fill="#E5E5E5"/>
<path d="M224.714 324.385C200.556 324.385 180.973 304.803 180.973 280.647C180.973 256.491 200.556 236.908 224.714 236.908C248.871 236.908 268.455 256.491 268.455 280.647C268.455 304.803 248.871 324.385 224.714 324.385Z" fill="#FFB800"/>
<path d="M212.595 277.856V269.488C212.594 267.895 212.907 266.319 213.515 264.847C214.124 263.376 215.016 262.039 216.142 260.913C217.267 259.787 218.603 258.894 220.074 258.284C221.545 257.674 223.122 257.361 224.714 257.361C226.306 257.361 227.883 257.674 229.354 258.284C230.825 258.894 232.161 259.787 233.286 260.913C234.412 262.039 235.304 263.376 235.913 264.847C236.521 266.319 236.834 267.895 236.833 269.488V277.856C238.453 277.929 239.982 278.624 241.103 279.796C242.224 280.967 242.85 282.526 242.851 284.148V303.924H206.577V284.148C206.578 282.526 207.204 280.967 208.325 279.796C209.446 278.624 210.975 277.929 212.595 277.856ZM224.714 261.636C222.632 261.639 220.637 262.467 219.165 263.938C217.693 265.41 216.865 267.406 216.863 269.488V277.842H232.565V269.488C232.563 267.406 231.735 265.41 230.263 263.938C228.791 262.467 226.796 261.639 224.714 261.636Z" fill="white"/>
<path d="M221.454 287.623C221.453 287.061 221.599 286.508 221.875 286.018C222.151 285.529 222.55 285.119 223.031 284.829C223.513 284.539 224.061 284.378 224.623 284.363C225.185 284.347 225.742 284.477 226.238 284.74C226.735 285.002 227.156 285.389 227.459 285.863C227.763 286.336 227.938 286.88 227.97 287.441C228.001 288.002 227.886 288.562 227.637 289.066C227.388 289.57 227.013 290.001 226.548 290.317V297.404H222.88V290.317C222.441 290.018 222.081 289.617 221.832 289.147C221.583 288.678 221.454 288.154 221.454 287.623Z" fill="#FFB800"/>
</g>
<defs>
<clipPath id="clip0_2931_898">
<rect width="555" height="408" fill="white" transform="matrix(-1 0 0 1 555 0)"/>
</clipPath>
</defs>
</svg>
