<svg width="540" height="347" viewBox="0 0 540 347" fill="none" xmlns="http://www.w3.org/2000/svg">
<mask id="mask0_85_5" style="mask-type:alpha" maskUnits="userSpaceOnUse" x="0" y="3" width="540" height="344">
<rect y="3" width="540" height="344" fill="#F5F5F5"/>
</mask>
<g mask="url(#mask0_85_5)">
<circle cx="386.5" cy="228.5" r="225.5" fill="white"/>
</g>
<g clip-path="url(#clip0_85_5)">
<path d="M4.33559 119.954H4.45959L75.562 150.315L172.845 191.856C173.225 192.015 173.633 192.099 174.045 192.101C174.458 192.103 174.866 192.024 175.248 191.868L275.615 150.228L348.464 120.004L348.576 119.954H348.7C349.849 119.955 350.951 120.413 351.764 121.225C352.577 122.038 353.034 123.14 353.035 124.29V312.575C353.034 313.724 352.577 314.826 351.764 315.639C350.951 316.452 349.849 316.909 348.7 316.911H4.33559C3.18613 316.909 2.08413 316.452 1.27134 315.639C0.458552 314.826 0.00135064 313.724 7.52211e-05 312.575V124.29C0.00135064 123.14 0.458552 122.038 1.27134 121.225C2.08413 120.413 3.18613 119.955 4.33559 119.954Z" fill="white"/>
<path d="M3.09755 121.193C3.22398 121.193 3.34738 121.154 3.45108 121.082L174.741 1.79124C175.262 1.42991 175.881 1.2368 176.515 1.23788C177.15 1.23897 177.768 1.43418 178.289 1.79729L348.344 121.081C348.411 121.128 348.486 121.161 348.565 121.178C348.645 121.196 348.727 121.198 348.807 121.184C348.887 121.17 348.964 121.14 349.032 121.096C349.101 121.053 349.16 120.996 349.207 120.929C349.254 120.863 349.287 120.788 349.305 120.708C349.322 120.629 349.324 120.547 349.31 120.467C349.296 120.387 349.266 120.31 349.223 120.241C349.179 120.173 349.122 120.113 349.056 120.067L179 0.782966C178.272 0.274689 177.405 0.00146517 176.517 5.87623e-06C175.629 -0.00145342 174.762 0.268919 174.033 0.774801L2.74315 120.065C2.63494 120.141 2.5536 120.249 2.51101 120.374C2.46841 120.498 2.46677 120.634 2.50632 120.759C2.54586 120.885 2.62452 120.995 2.73087 121.073C2.83721 121.151 2.96566 121.193 3.09755 121.193Z" fill="#302E44"/>
<path d="M338.626 125.421L176.347 5.15234L12.8359 133.979L167.986 225.954L252.218 206.754L338.626 125.421Z" fill="#302E44"/>
<path d="M245.109 282.763H325.279C325.771 282.764 326.259 282.667 326.714 282.479C327.169 282.291 327.582 282.015 327.931 281.668C328.279 281.32 328.555 280.907 328.744 280.452C328.932 279.997 329.029 279.51 329.029 279.017C329.029 278.525 328.932 278.038 328.744 277.583C328.555 277.128 328.279 276.715 327.931 276.367C327.582 276.019 327.169 275.744 326.714 275.556C326.259 275.368 325.771 275.271 325.279 275.272H245.109C244.617 275.271 244.129 275.368 243.674 275.556C243.219 275.744 242.806 276.019 242.457 276.367C242.109 276.715 241.833 277.128 241.644 277.583C241.456 278.038 241.359 278.525 241.359 279.017C241.359 279.51 241.456 279.997 241.644 280.452C241.833 280.907 242.109 281.32 242.457 281.668C242.806 282.015 243.219 282.291 243.674 282.479C244.129 282.667 244.617 282.764 245.109 282.763Z" fill="#00EA99"/>
<path d="M296.516 266.66H325.279C325.771 266.661 326.259 266.564 326.714 266.376C327.169 266.188 327.582 265.912 327.931 265.565C328.279 265.217 328.555 264.804 328.744 264.349C328.932 263.894 329.029 263.407 329.029 262.914C329.029 262.422 328.932 261.935 328.744 261.48C328.555 261.025 328.279 260.612 327.931 260.264C327.582 259.916 327.169 259.641 326.714 259.453C326.259 259.265 325.771 259.168 325.279 259.169H296.516C296.023 259.168 295.536 259.265 295.081 259.453C294.626 259.641 294.212 259.916 293.864 260.264C293.516 260.612 293.24 261.025 293.051 261.48C292.862 261.935 292.765 262.422 292.765 262.914C292.765 263.407 292.862 263.894 293.051 264.349C293.24 264.804 293.516 265.217 293.864 265.565C294.212 265.912 294.626 266.188 295.081 266.376C295.536 266.564 296.023 266.661 296.516 266.66Z" fill="#00EA99"/>
<path d="M174.065 192.41C174.674 192.411 175.278 192.292 175.842 192.062L275.925 150.534V20.5469C275.923 19.3975 275.466 18.2955 274.653 17.4828C273.841 16.67 272.739 16.2128 271.589 16.2114H79.5878C78.4383 16.2128 77.3363 16.67 76.5235 17.4828C75.7108 18.2955 75.2536 19.3975 75.2522 20.5469V150.625L75.4403 150.706L172.234 192.042C172.814 192.285 173.436 192.41 174.065 192.41Z" fill="white"/>
<path d="M174.065 192.719C174.715 192.72 175.358 192.594 175.96 192.348L276.234 150.741V20.5466C276.233 19.315 275.743 18.1343 274.872 17.2635C274.001 16.3926 272.821 15.9028 271.589 15.9014H79.5876C78.3561 15.9028 77.1754 16.3926 76.3045 17.2635C75.4337 18.1343 74.9438 19.315 74.9424 20.5466V150.829L172.112 192.326C172.73 192.586 173.394 192.719 174.065 192.719ZM274.996 149.914L175.487 191.203C174.559 191.579 173.52 191.573 172.596 191.186L76.1812 150.012V20.5466C76.1822 19.6434 76.5415 18.7776 77.1801 18.139C77.8187 17.5004 78.6845 17.1412 79.5876 17.1401H271.589C272.492 17.1412 273.358 17.5004 273.997 18.139C274.635 18.7776 274.995 19.6434 274.996 20.5466V149.914Z" fill="#302E44"/>
<path d="M4.33559 119.954H4.45959L75.562 150.315L172.845 191.856C173.225 192.015 173.633 192.099 174.045 192.101C174.458 192.103 174.866 192.024 175.248 191.868L275.615 150.228L348.464 120.004L348.576 119.954H348.7C349.849 119.955 350.951 120.413 351.764 121.225C352.577 122.038 353.034 123.14 353.035 124.29V312.575C353.034 313.724 352.577 314.826 351.764 315.639C350.951 316.452 349.849 316.909 348.7 316.911H4.33559C3.18613 316.909 2.08413 316.452 1.27134 315.639C0.458552 314.826 0.00135064 313.724 7.52211e-05 312.575V124.29C0.00135064 123.14 0.458552 122.038 1.27134 121.225C2.08413 120.413 3.18613 119.955 4.33559 119.954ZM1.23879 312.575C1.23912 313.396 1.56548 314.184 2.14617 314.764C2.72686 315.345 3.51437 315.671 4.33559 315.672H348.7C349.521 315.671 350.308 315.345 350.889 314.764C351.47 314.184 351.796 313.396 351.796 312.575V124.29C351.795 123.489 351.485 122.719 350.929 122.142C350.374 121.565 349.617 121.225 348.817 121.193L275.615 151.566L175.725 193.014C174.643 193.454 173.432 193.447 172.355 192.995L75.562 151.659L4.2116 121.193C3.4128 121.227 2.65806 121.568 2.10436 122.145C1.55067 122.722 1.24063 123.49 1.23879 124.29V312.575Z" fill="#302E44"/>
<path d="M189.646 64.8014H257.776C259.09 64.8014 260.35 64.2793 261.279 63.3501C262.208 62.4209 262.73 61.1606 262.73 59.8465C262.73 58.5324 262.208 57.2721 261.279 56.3428C260.35 55.4136 259.09 54.8916 257.776 54.8916H189.646C188.332 54.8916 187.072 55.4136 186.142 56.3428C185.213 57.2721 184.691 58.5324 184.691 59.8465C184.691 61.1606 185.213 62.4209 186.142 63.3501C187.072 64.2793 188.332 64.8014 189.646 64.8014Z" fill="#00EA99"/>
<path d="M224.95 43.7428H257.776C259.09 43.7428 260.35 43.2207 261.279 42.2915C262.208 41.3623 262.73 40.102 262.73 38.7879C262.73 37.4738 262.208 36.2135 261.279 35.2843C260.35 34.355 259.09 33.833 257.776 33.833H224.95C223.635 33.833 222.375 34.355 221.446 35.2843C220.517 36.2135 219.995 37.4738 219.995 38.7879C219.995 40.102 220.517 41.3623 221.446 42.2915C222.375 43.2207 223.635 43.7428 224.95 43.7428Z" fill="#00EA99"/>
<path d="M124.633 114.35H228.686C230 114.35 231.26 113.828 232.189 112.899C233.119 111.97 233.641 110.709 233.641 109.395C233.641 108.081 233.119 106.821 232.189 105.892C231.26 104.962 230 104.44 228.686 104.44H124.633C123.319 104.44 122.059 104.962 121.13 105.892C120.2 106.821 119.678 108.081 119.678 109.395C119.678 110.709 120.2 111.97 121.13 112.899C122.059 113.828 123.319 114.35 124.633 114.35Z" fill="#CCCCCC"/>
<path d="M124.633 137.266H228.686C230 137.266 231.26 136.744 232.189 135.815C233.119 134.886 233.641 133.625 233.641 132.311C233.641 130.997 233.119 129.737 232.189 128.808C231.26 127.878 230 127.356 228.686 127.356H124.633C123.319 127.356 122.059 127.878 121.13 128.808C120.2 129.737 119.678 130.997 119.678 132.311C119.678 133.625 120.2 134.886 121.13 135.815C122.059 136.744 123.319 137.266 124.633 137.266Z" fill="#CCCCCC"/>
<path d="M433.495 173.058C434.139 173.057 434.763 172.834 435.261 172.426C435.759 172.018 436.1 171.45 436.227 170.819L438.481 159.584C439.676 153.625 438.455 147.435 435.087 142.376C431.718 137.317 426.478 133.804 420.519 132.609C414.559 131.413 408.37 132.635 403.311 136.003C398.252 139.372 394.738 144.612 393.543 150.571L391.29 161.806C391.145 162.53 391.294 163.283 391.704 163.898C392.113 164.513 392.75 164.94 393.474 165.087L432.946 173.004C433.127 173.04 433.311 173.058 433.495 173.058Z" fill="#302E44"/>
<path d="M363.421 340.335L370.501 340.335L373.868 313.023L363.418 313.024L363.421 340.335Z" fill="#A0616A"/>
<path d="M375.559 338.312H361.904V346.909H384.157C384.157 344.629 383.251 342.442 381.639 340.83C380.027 339.217 377.84 338.312 375.559 338.312Z" fill="#302E44"/>
<path d="M437.199 340.264L443.719 337.503L436.17 311.041L426.548 315.117L437.199 340.264Z" fill="#A0616A"/>
<path d="M447.587 333.668L435.013 338.993L438.366 346.91L458.857 338.232C458.417 337.192 457.776 336.249 456.971 335.457C456.167 334.665 455.214 334.039 454.167 333.615C453.121 333.192 452.001 332.978 450.872 332.987C449.743 332.996 448.626 333.227 447.587 333.668Z" fill="#302E44"/>
<path d="M415.363 170.244C406.962 170.244 400.151 163.433 400.151 155.031C400.151 146.63 406.962 139.819 415.363 139.819C423.764 139.819 430.575 146.63 430.575 155.031C430.575 163.433 423.764 170.244 415.363 170.244Z" fill="#A0616A"/>
<path d="M414.643 224.233L414.799 223.726C418.944 210.252 423.229 196.326 427.52 183.08L427.636 182.723L427.372 182.455C420.712 175.68 408.236 172.978 398.35 176.171C388.4 179.383 381.544 188.391 382.401 197.127C382.857 202.374 381.447 207.614 378.42 211.925L378.023 212.501L378.643 212.825C389.758 218.544 401.746 222.374 414.118 224.157L414.643 224.233Z" fill="#302E44"/>
<path d="M432.99 335.357C433.532 335.356 434.065 335.213 434.534 334.94L442.751 330.195C443.425 329.81 443.929 329.185 444.162 328.445C444.396 327.705 444.341 326.904 444.009 326.202L425.749 282.877L411.795 219.687L386.363 210.439L386.132 210.546C358.867 223.07 360.975 312.842 361.674 330.711C361.705 331.463 362.009 332.178 362.529 332.722C363.048 333.266 363.748 333.603 364.497 333.67L372.145 334.669C372.922 334.737 373.697 334.512 374.317 334.038C374.937 333.564 375.357 332.875 375.495 332.107L391.107 262.333C391.123 262.201 391.181 262.077 391.273 261.98C391.364 261.883 391.485 261.818 391.616 261.796C391.743 261.771 391.873 261.788 391.989 261.843C392.105 261.897 392.201 261.988 392.262 262.1L430.282 333.769C430.482 334.129 430.752 334.445 431.077 334.699C431.401 334.953 431.773 335.139 432.17 335.247C432.437 335.32 432.713 335.357 432.99 335.357Z" fill="#302E44"/>
<path d="M423.856 271.683C423.376 270.983 423.055 270.186 422.916 269.348C422.777 268.51 422.824 267.652 423.052 266.835C423.281 266.017 423.686 265.259 424.239 264.615C424.792 263.971 425.48 263.456 426.253 263.106L425.837 249.841L433.837 247.622L434.161 266.363C434.663 267.702 434.656 269.178 434.141 270.512C433.627 271.846 432.642 272.944 431.371 273.6C430.101 274.256 428.635 274.423 427.25 274.069C425.864 273.716 424.657 272.867 423.856 271.683Z" fill="#A0616A"/>
<path d="M434.043 257.661L434.513 257.659C435.287 257.653 436.03 257.357 436.595 256.828C437.16 256.299 437.505 255.577 437.562 254.806C438.329 244.926 440.685 211.273 438.788 193.028C438.536 191.325 437.946 189.69 437.051 188.22C436.156 186.75 434.975 185.474 433.578 184.469C432.182 183.463 430.597 182.748 428.919 182.366C427.241 181.985 425.503 181.943 423.808 182.245L423.32 182.353L423.324 182.854C423.498 206.859 423.486 230.724 423.475 253.804C423.474 254.509 423.713 255.193 424.152 255.743C424.592 256.294 425.207 256.678 425.894 256.832C428.575 257.387 431.306 257.665 434.043 257.661Z" fill="#FFB800"/>
<path d="M415.832 286.451C417.88 286.442 419.854 285.686 421.385 284.326C422.915 282.965 423.897 281.093 424.146 279.061L423.472 223.658L434.484 195.806C434.947 192.147 434.16 188.439 432.25 185.284C430.341 182.128 427.421 179.711 423.964 178.425L421.02 177.32C420.464 177.112 419.872 177.015 419.278 177.036C418.685 177.057 418.101 177.195 417.561 177.441C417.02 177.688 416.534 178.04 416.13 178.475C415.725 178.91 415.411 179.421 415.205 179.978L403.85 210.635L403.847 210.68C403.06 222.881 399.506 283.609 406.591 285.42C409.594 286.124 412.668 286.469 415.752 286.45L415.832 286.451Z" fill="#FFB800"/>
<path d="M350.418 250.766C351.204 250.447 351.912 249.959 352.489 249.337C353.067 248.715 353.502 247.974 353.762 247.166C354.023 246.358 354.103 245.503 353.997 244.66C353.891 243.818 353.602 243.009 353.149 242.29L360.813 231.455L355.365 225.192L344.757 240.645C343.6 241.485 342.792 242.72 342.485 244.116C342.178 245.512 342.394 246.972 343.091 248.22C343.789 249.468 344.92 250.416 346.271 250.885C347.621 251.355 349.096 251.312 350.418 250.766Z" fill="#A0616A"/>
<path d="M358.071 236.842C358.471 236.83 358.863 236.722 359.213 236.527C359.563 236.332 359.86 236.056 360.081 235.722L360.122 235.661C372.803 216.467 385.916 196.62 399.207 176.834L399.35 176.621L399.167 176.441C398.001 175.353 396.627 174.512 395.128 173.968C393.629 173.424 392.036 173.189 390.443 173.277C388.804 173.307 387.19 173.682 385.706 174.379C384.222 175.075 382.901 176.076 381.83 177.318C370.216 191.448 353.641 220.778 348.837 229.43C348.534 229.968 348.445 230.599 348.586 231.2C348.728 231.8 349.09 232.325 349.602 232.67C351.96 234.276 354.487 235.62 357.136 236.679C357.434 236.796 357.752 236.851 358.071 236.842Z" fill="#FFB800"/>
<path d="M362.328 274.103C369.924 274.108 397.101 221.778 402.472 211.288L402.518 211.161L408.46 179.061C408.568 178.477 408.56 177.877 408.435 177.296C408.311 176.715 408.073 176.164 407.736 175.676C407.398 175.187 406.967 174.77 406.468 174.448C405.969 174.126 405.411 173.906 404.826 173.8L401.732 173.241C398.104 172.576 394.358 173.157 391.102 174.889C387.846 176.621 385.271 179.403 383.795 182.783L376.032 215.416L350.073 259.521C349.22 261.411 349.095 263.549 349.721 265.525C350.347 267.501 351.68 269.177 353.465 270.231C356.103 271.827 358.921 273.105 361.861 274.038C362.012 274.082 362.17 274.104 362.328 274.103Z" fill="#FFB800"/>
<path d="M403.549 155.163H434.207V151.447C434.202 147.342 432.57 143.406 429.667 140.503C426.764 137.6 422.828 135.968 418.723 135.963H416.246C412.14 135.968 408.205 137.6 405.302 140.503C402.399 143.406 400.766 147.342 400.762 151.447V152.376C400.762 153.115 401.056 153.823 401.579 154.346C402.101 154.868 402.81 155.162 403.549 155.163Z" fill="#302E44"/>
</g>
<defs>
<clipPath id="clip0_85_5">
<rect width="459" height="347" fill="white" transform="matrix(-1 0 0 1 459 0)"/>
</clipPath>
</defs>
</svg>
