<svg width="526" height="364" viewBox="0 0 526 364" fill="none" xmlns="http://www.w3.org/2000/svg">
<g clip-path="url(#clip0_2931_982)">
<path d="M100.118 173.677L87.1848 202.808L90.2971 238.836C91.2743 239.664 91.966 240.778 92.2741 242.022C92.5822 243.265 92.4912 244.573 92.0138 245.762C91.5364 246.951 90.697 247.959 89.6146 248.643C88.5321 249.328 87.2616 249.655 85.9832 249.577C84.7047 249.499 83.4832 249.02 82.4919 248.209C81.5006 247.398 80.7898 246.296 80.4602 245.058C80.1307 243.82 80.1991 242.51 80.6559 241.314C81.1127 240.117 81.9345 239.095 83.005 238.391L82.4982 238.302L77.4309 202.3L85.7884 165.984L100.118 173.677Z" fill="#FFB8B8"/>
<path d="M137.05 363.188C124.302 363.188 113.968 362.112 113.968 360.784C113.968 359.456 124.302 358.379 137.05 358.379C149.798 358.379 160.133 359.456 160.133 360.784C160.133 362.112 149.798 363.188 137.05 363.188Z" fill="#E6E6E6"/>
<path d="M68.7662 363.188C56.0182 363.188 45.6838 362.112 45.6838 360.784C45.6838 359.456 56.0182 358.379 68.7662 358.379C81.5143 358.379 91.8486 359.456 91.8486 360.784C91.8486 362.112 81.5143 363.188 68.7662 363.188Z" fill="#E6E6E6"/>
<path d="M15.8694 363.188C7.10526 363.188 0.000547409 362.448 0.000547409 361.535C0.000547409 360.622 7.10526 359.881 15.8694 359.881C24.6335 359.881 31.7383 360.622 31.7383 361.535C31.7383 362.448 24.6335 363.188 15.8694 363.188Z" fill="#E6E6E6"/>
<path d="M11.3294 349.005C11.439 353.125 12.1284 357.21 13.3773 361.138C13.4061 361.229 13.436 361.319 13.4659 361.41H21.1172C21.1089 361.329 21.1006 361.238 21.0929 361.138C20.5826 355.271 17.6414 319.576 21.1582 313.472C20.8494 313.966 10.7339 330.369 11.3294 349.005Z" fill="#E6E6E6"/>
<path d="M11.902 361.138C11.9662 361.229 12.0323 361.32 12.1006 361.41H17.8408C17.7971 361.333 17.7467 361.244 17.6886 361.138C16.7405 359.426 13.9338 354.31 11.328 349.005C8.52796 343.304 5.95927 337.387 6.17568 335.246C6.10868 335.729 4.1715 350.452 11.902 361.138Z" fill="#E6E6E6"/>
<path d="M90.2768 230.199H438.915C440.027 230.197 441.094 229.755 441.881 228.968C442.667 228.181 443.11 227.115 443.111 226.002V4.1965C443.11 3.08388 442.668 2.01717 441.881 1.23042C441.094 0.443681 440.027 0.00117211 438.915 0H90.2768C89.1642 0.00117211 88.0974 0.443681 87.3107 1.23042C86.524 2.01717 86.0815 3.08388 86.0803 4.1965V226.002C86.0816 227.115 86.5242 228.181 87.3109 228.968C88.0976 229.755 89.1642 230.197 90.2768 230.199ZM438.915 1.66044C439.587 1.66118 440.232 1.9286 440.707 2.40405C441.183 2.87949 441.45 3.52412 441.451 4.1965V226.002C441.45 226.674 441.183 227.319 440.707 227.794C440.232 228.27 439.587 228.537 438.915 228.538H90.2768C89.6044 228.537 88.9598 228.27 88.4843 227.794C88.0089 227.319 87.7415 226.674 87.7408 226.002V4.1965C87.7415 3.52412 88.0089 2.87949 88.4843 2.40405C88.9598 1.9286 89.6044 1.66118 90.2768 1.66044H438.915Z" fill="#E6E6E6"/>
<path d="M180.58 32.7003H365.3C366.207 32.7013 367.077 33.0621 367.718 33.7036C368.36 34.345 368.721 35.2147 368.722 36.1219V194.076C368.721 194.983 368.36 195.853 367.718 196.494C367.077 197.136 366.207 197.497 365.3 197.498H180.58C179.673 197.497 178.803 197.136 178.162 196.494C177.52 195.853 177.159 194.983 177.158 194.076V36.1219C177.159 35.2147 177.52 34.345 178.162 33.7036C178.803 33.0621 179.673 32.7013 180.58 32.7003ZM178.532 194.077C178.532 194.621 178.748 195.142 179.132 195.528C179.515 195.913 180.036 196.131 180.58 196.133H365.3C365.844 196.132 366.366 195.914 366.749 195.529C367.133 195.143 367.349 194.621 367.348 194.077V36.1219C367.349 35.5777 367.133 35.0555 366.749 34.6699C366.366 34.2842 365.844 34.0668 365.3 34.0651H180.58C180.036 34.0678 179.515 34.2856 179.132 34.671C178.748 35.0564 178.532 35.578 178.532 36.1219V194.077Z" fill="#302E44"/>
<path d="M322.662 169.412C322.662 169.656 322.669 169.899 322.681 170.136C322.868 173.701 324.416 177.058 327.005 179.514C329.594 181.971 333.027 183.341 336.596 183.341C340.165 183.341 343.599 181.971 346.188 179.514C348.777 177.058 350.324 173.701 350.511 170.136C350.524 169.899 350.53 169.656 350.53 169.412C350.53 165.717 349.062 162.173 346.449 159.56C343.836 156.947 340.292 155.479 336.596 155.479C332.901 155.479 329.357 156.947 326.744 159.56C324.131 162.173 322.662 165.717 322.662 169.412H322.662Z" fill="#00EA99"/>
<path d="M194.935 160.121H304.419C305.02 160.144 305.589 160.399 306.006 160.832C306.423 161.265 306.656 161.843 306.656 162.444C306.656 163.045 306.423 163.623 306.006 164.057C305.589 164.49 305.02 164.744 304.419 164.767H194.935C194.319 164.789 193.72 164.566 193.269 164.147C192.818 163.728 192.551 163.147 192.528 162.532C192.505 161.916 192.727 161.317 193.145 160.865C193.563 160.413 194.144 160.146 194.759 160.121C194.818 160.119 194.876 160.119 194.935 160.121Z" fill="#00EA99"/>
<path d="M257.308 174.058H304.419C305.034 174.058 305.624 174.302 306.059 174.737C306.494 175.172 306.738 175.762 306.738 176.377C306.738 176.993 306.494 177.583 306.059 178.018C305.624 178.453 305.034 178.697 304.419 178.697H257.308C256.693 178.698 256.102 178.455 255.667 178.02C255.231 177.586 254.985 176.997 254.984 176.381C254.983 175.766 255.227 175.176 255.661 174.74C256.095 174.304 256.685 174.059 257.3 174.058H257.308Z" fill="#E6E6E6"/>
<path d="M136.696 142.889H321.417C322.451 142.887 323.443 142.476 324.174 141.744C324.906 141.013 325.317 140.021 325.318 138.987V57.9208C325.317 56.8864 324.906 55.8947 324.174 55.1633C323.443 54.4319 322.451 54.0205 321.417 54.0193H136.698C135.664 54.0205 134.672 54.4319 133.94 55.1633C133.209 55.8947 132.798 56.8864 132.796 57.9208V138.985C132.797 140.019 133.208 141.011 133.939 141.743C134.67 142.475 135.661 142.887 136.696 142.889Z" fill="#00EA99"/>
<path d="M283.796 82.7555C284.412 82.7286 285.013 82.9475 285.468 83.364C285.922 83.7805 286.193 84.3605 286.219 84.9765C286.246 85.5924 286.027 86.1938 285.611 86.6484C285.194 87.1029 284.614 87.3734 283.998 87.4003C283.931 87.4033 283.863 87.4033 283.796 87.4003H174.313C173.715 87.3742 173.149 87.1181 172.735 86.6854C172.321 86.2527 172.09 85.6769 172.09 85.0779C172.09 84.4789 172.321 83.9031 172.735 83.4704C173.149 83.0377 173.715 82.7816 174.313 82.7555H283.796Z" fill="white"/>
<path d="M283.796 96.2122C284.412 96.1853 285.013 96.4042 285.468 96.8207C285.922 97.2372 286.193 97.8173 286.219 98.4332C286.246 99.0491 286.027 99.6505 285.611 100.105C285.194 100.56 284.614 100.83 283.998 100.857C283.931 100.86 283.863 100.86 283.796 100.857H174.313C173.715 100.831 173.149 100.575 172.735 100.142C172.321 99.7095 172.09 99.1336 172.09 98.5347C172.09 97.9357 172.321 97.3598 172.735 96.9271C173.149 96.4945 173.715 96.2384 174.313 96.2122H283.796Z" fill="white"/>
<path d="M283.796 109.505C284.395 109.531 284.96 109.787 285.374 110.22C285.788 110.653 286.02 111.229 286.02 111.828C286.02 112.427 285.788 113.002 285.374 113.435C284.96 113.868 284.395 114.124 283.796 114.15H236.686C236.381 114.163 236.076 114.117 235.789 114.012C235.502 113.908 235.239 113.748 235.014 113.542C234.789 113.335 234.606 113.087 234.477 112.81C234.348 112.533 234.275 112.234 234.262 111.929C234.248 111.624 234.295 111.32 234.4 111.033C234.504 110.746 234.664 110.482 234.87 110.257C235.077 110.032 235.325 109.85 235.602 109.721C235.878 109.592 236.178 109.519 236.483 109.505C236.55 109.502 236.618 109.502 236.686 109.505H283.796Z" fill="white"/>
<path d="M428.214 14.6949C426.621 14.6949 425.329 13.4031 425.329 11.8096C425.329 10.2161 426.621 8.92432 428.214 8.92432C429.808 8.92432 431.1 10.2161 431.1 11.8096C431.1 13.4031 429.808 14.6949 428.214 14.6949Z" fill="#00EA99"/>
<path d="M418.117 14.6949C416.523 14.6949 415.231 13.4031 415.231 11.8096C415.231 10.2161 416.523 8.92432 418.117 8.92432C419.71 8.92432 421.002 10.2161 421.002 11.8096C421.002 13.4031 419.71 14.6949 418.117 14.6949Z" fill="#00EA99"/>
<path d="M408.018 14.6949C406.425 14.6949 405.133 13.4031 405.133 11.8096C405.133 10.2161 406.425 8.92432 408.018 8.92432C409.612 8.92432 410.903 10.2161 410.903 11.8096C410.903 13.4031 409.612 14.6949 408.018 14.6949Z" fill="#00EA99"/>
<path d="M104.532 137.474C97.4342 137.474 91.68 131.72 91.68 124.622C91.68 117.524 97.4342 111.77 104.532 111.77C111.631 111.77 117.385 117.524 117.385 124.622C117.385 131.72 111.631 137.474 104.532 137.474Z" fill="#FFB8B8"/>
<path d="M129.954 193.163L96.1989 199.443C84.8188 178.595 78.5428 159.769 89.1337 147.633L109.151 146.455C121.942 160.133 132.76 173.406 125.409 182.959L129.954 193.163Z" fill="#FFB800"/>
<path d="M99.8948 176.793C92.1698 179.749 85 177.181 78.4197 168.756L88.1731 149.938L100.602 152.401L99.8948 176.793Z" fill="#6C63FF"/>
<path d="M133.096 349.38L119.751 348.693L111.117 258.319L67.1564 348.205L53.419 347.812L79.7138 268.916C80.7516 242.595 81.8364 216.342 93.0588 204.938L96.9835 196.696L128.384 190.023L132.701 198.265C142.712 221.641 136.834 288.429 133.096 349.38Z" fill="#302E44"/>
<path d="M117.003 168.437L127.993 198.269L147.921 226.628C149.199 226.711 150.419 227.195 151.407 228.01C152.394 228.825 153.101 229.93 153.425 231.17C153.75 232.409 153.676 233.718 153.214 234.913C152.752 236.108 151.926 237.127 150.853 237.826C149.779 238.524 148.513 238.868 147.234 238.807C145.955 238.745 144.727 238.283 143.725 237.485C142.723 236.687 141.998 235.594 141.652 234.361C141.306 233.128 141.358 231.817 141.799 230.614L141.338 230.844L115.826 204.941L100.91 170.792L117.003 168.437Z" fill="#FFB8B8"/>
<path d="M119.749 168.436C114.251 174.615 106.703 175.631 96.9838 171.184V149.989L109.152 146.456L119.749 168.436Z" fill="#FFB800"/>
<path d="M64.2247 160.411C66.1789 157.966 68.9066 156.286 71.5511 154.613C74.1955 152.941 76.8816 151.164 78.6787 148.601C81.5464 144.512 81.6832 139.134 81.2554 134.158C80.8275 129.182 79.9519 124.099 81.1646 119.254C82.7685 112.845 88.079 107.655 94.3533 105.586C100.628 103.517 107.685 104.4 113.587 107.369L111.965 105.837C113.257 106.104 114.437 106.76 115.345 107.718C116.254 108.675 116.847 109.888 117.044 111.193C117.242 112.498 117.035 113.832 116.451 115.016C115.868 116.199 114.935 117.176 113.779 117.813C111.117 119.281 107.489 118.861 105.35 121.019C103.244 123.147 103.685 126.64 104.446 129.536C106.413 137.033 109.534 144.249 110.615 151.921C111.695 159.594 110.329 168.19 104.637 173.448C100.452 177.313 94.5068 178.804 88.812 178.69C83.1171 178.576 77.5602 177.018 72.0808 175.469C68.2369 174.383 63.9001 172.876 62.3948 169.174C61.216 166.278 62.2702 162.856 64.2247 160.411Z" fill="#302E44"/>
<path d="M119.414 359.724L148.067 359.723V359.361C148.067 356.403 146.892 353.566 144.801 351.475C142.709 349.383 139.873 348.208 136.915 348.208H136.914L119.414 348.209L119.414 359.724Z" fill="#302E44"/>
<path d="M52.9962 358.617L81.6494 358.616V358.254C81.6492 355.296 80.4741 352.459 78.3826 350.368C76.2912 348.276 73.4546 347.101 70.4968 347.101H70.4961L52.9956 347.102L52.9962 358.617Z" fill="#302E44"/>
</g>
<defs>
<clipPath id="clip0_2931_982">
<rect width="525.11" height="363.188" fill="white" transform="matrix(-1 0 0 1 525.11 0)"/>
</clipPath>
</defs>
</svg>
