<svg width="563" height="335" viewBox="0 0 563 335" fill="none" xmlns="http://www.w3.org/2000/svg">
<mask id="mask0_2931_796" style="mask-type:alpha" maskUnits="userSpaceOnUse" x="181" y="54" width="382" height="281">
<path d="M181 54H563V285C563 312.614 540.614 335 513 335H181V54Z" fill="#2F2E41"/>
</mask>
<g mask="url(#mask0_2931_796)">
<circle cx="407.5" cy="278.5" r="225.5" fill="white"/>
</g>
<path d="M448.35 224.545C447.855 223.952 447.496 223.256 447.298 222.508C447.1 221.76 447.069 220.978 447.205 220.217C447.342 219.455 447.643 218.733 448.089 218.101C448.534 217.469 449.113 216.942 449.783 216.558L446.325 198.074L455.319 201.859L457.224 218.832C457.793 220.003 457.914 221.343 457.563 222.597C457.212 223.852 456.414 224.933 455.32 225.637C454.226 226.342 452.912 226.62 451.628 226.418C450.343 226.217 449.177 225.551 448.35 224.545Z" fill="#FFB6B6"/>
<path d="M426.979 10.8445H32.1191V198.544H426.979V10.8445Z" fill="#E6E6E6"/>
<path d="M415.688 26.9401H43.4102V183.544H415.688V26.9401Z" fill="white"/>
<path d="M426.81 0H31.9502V16.8045H426.81V0Z" fill="#00EA99"/>
<path d="M44.4168 10.8875C46.1339 10.8875 47.5259 9.49303 47.5259 7.77286C47.5259 6.05268 46.1339 4.6582 44.4168 4.6582C42.6996 4.6582 41.3076 6.05268 41.3076 7.77286C41.3076 9.49303 42.6996 10.8875 44.4168 10.8875Z" fill="white"/>
<path d="M56.2176 10.8875C57.9347 10.8875 59.3267 9.49305 59.3267 7.77287C59.3267 6.0527 57.9347 4.65822 56.2176 4.65822C54.5004 4.65822 53.1084 6.0527 53.1084 7.77287C53.1084 9.49305 54.5004 10.8875 56.2176 10.8875Z" fill="white"/>
<path d="M68.0193 10.8875C69.7364 10.8875 71.1285 9.49305 71.1285 7.77287C71.1285 6.0527 69.7364 4.65822 68.0193 4.65822C66.3022 4.65822 64.9102 6.0527 64.9102 7.77287C64.9102 9.49305 66.3022 10.8875 68.0193 10.8875Z" fill="white"/>
<path d="M65.1823 127.694C64.7506 127.696 64.3371 127.869 64.0324 128.175C63.7277 128.482 63.5566 128.896 63.5566 129.329C63.5566 129.761 63.7277 130.176 64.0324 130.482C64.3371 130.789 64.7506 130.962 65.1823 130.963H154.706C155.138 130.962 155.551 130.789 155.856 130.482C156.16 130.176 156.332 129.761 156.332 129.329C156.332 128.896 156.16 128.482 155.856 128.175C155.551 127.869 155.138 127.696 154.706 127.694H65.1823Z" fill="#E6E6E6"/>
<path d="M65.1823 137.502C64.7506 137.503 64.3371 137.676 64.0324 137.982C63.7277 138.289 63.5566 138.704 63.5566 139.136C63.5566 139.568 63.7277 139.983 64.0324 140.29C64.3371 140.596 64.7506 140.769 65.1823 140.77H110.886C111.318 140.769 111.731 140.596 112.036 140.29C112.34 139.983 112.512 139.568 112.512 139.136C112.512 138.704 112.34 138.289 112.036 137.982C111.731 137.676 111.318 137.503 110.886 137.502H65.1823Z" fill="#E6E6E6"/>
<path d="M154.819 156.017H120.812C120.371 156.017 119.949 155.841 119.638 155.529C119.326 155.217 119.151 154.794 119.15 154.353V148.895C119.151 148.453 119.326 148.03 119.638 147.718C119.949 147.406 120.371 147.231 120.812 147.23H154.819C155.259 147.231 155.681 147.406 155.993 147.718C156.304 148.03 156.479 148.453 156.48 148.895V154.353C156.479 154.794 156.304 155.217 155.993 155.529C155.681 155.841 155.259 156.017 154.819 156.017Z" fill="#00EA99"/>
<path d="M154.819 99.1784H120.812C120.371 99.1779 119.949 99.0024 119.638 98.6904C119.326 98.3784 119.151 97.9553 119.15 97.5141V92.0558C119.151 91.6146 119.326 91.1916 119.638 90.8796C119.949 90.5676 120.371 90.3921 120.812 90.3916H154.819C155.259 90.3921 155.681 90.5676 155.993 90.8796C156.304 91.1916 156.479 91.6146 156.48 92.0558V97.5141C156.479 97.9553 156.304 98.3784 155.993 98.6904C155.681 99.0024 155.259 99.1779 154.819 99.1784Z" fill="#00EA99"/>
<path d="M214.758 54.3285C214.194 54.3294 213.654 54.5545 213.255 54.9543C212.857 55.3541 212.633 55.8961 212.633 56.4611C212.633 57.0261 212.857 57.5681 213.255 57.9679C213.654 58.3677 214.194 58.5928 214.758 58.5937H392.807C393.371 58.5928 393.912 58.3677 394.31 57.9679C394.709 57.5681 394.933 57.0261 394.933 56.4611C394.933 55.8961 394.709 55.3541 394.31 54.9543C393.912 54.5545 393.371 54.3294 392.807 54.3285H214.758Z" fill="#E6E6E6"/>
<path d="M214.758 67.1254C214.194 67.1263 213.654 67.3513 213.255 67.7512C212.857 68.151 212.633 68.6929 212.633 69.258C212.633 69.823 212.857 70.3649 213.255 70.7648C213.654 71.1646 214.194 71.3897 214.758 71.3906H335.629C336.193 71.3897 336.734 71.1646 337.132 70.7648C337.531 70.3649 337.755 69.823 337.755 69.258C337.755 68.6929 337.531 68.151 337.132 67.7512C336.734 67.3513 336.193 67.1263 335.629 67.1254H214.758Z" fill="#E6E6E6"/>
<path d="M214.758 79.6327C214.194 79.6336 213.654 79.8586 213.255 80.2585C212.857 80.6583 212.633 81.2003 212.633 81.7653C212.633 82.3303 212.857 82.8723 213.255 83.2721C213.654 83.6719 214.194 83.897 214.758 83.8979H392.807C393.371 83.897 393.912 83.6719 394.31 83.2721C394.709 82.8723 394.933 82.3303 394.933 81.7653C394.933 81.2003 394.709 80.6583 394.31 80.2585C393.912 79.8586 393.371 79.6336 392.807 79.6327H214.758Z" fill="#E6E6E6"/>
<path d="M214.758 92.4295C214.194 92.4304 213.654 92.6555 213.255 93.0553C212.857 93.4552 212.633 93.9971 212.633 94.5621C212.633 95.1271 212.857 95.6691 213.255 96.0689C213.654 96.4688 214.194 96.6938 214.758 96.6947H335.629C336.193 96.6938 336.734 96.4688 337.132 96.0689C337.531 95.6691 337.755 95.1271 337.755 94.5621C337.755 93.9971 337.531 93.4552 337.132 93.0553C336.734 92.6555 336.193 92.4304 335.629 92.4295H214.758Z" fill="#E6E6E6"/>
<path d="M393.329 120.107H359.322C358.882 120.106 358.46 119.931 358.148 119.619C357.837 119.307 357.662 118.884 357.661 118.443V112.984C357.662 112.543 357.837 112.12 358.148 111.808C358.46 111.496 358.882 111.321 359.322 111.32H393.329C393.77 111.321 394.192 111.496 394.504 111.808C394.815 112.12 394.99 112.543 394.991 112.984V118.443C394.99 118.884 394.815 119.307 394.504 119.619C394.192 119.931 393.77 120.106 393.329 120.107Z" fill="#00EA99"/>
<path d="M103.739 56.6386C103.135 56.6405 102.646 57.4266 102.647 58.3942C102.649 59.3592 103.137 60.141 103.739 60.1429H155.318C155.923 60.141 156.412 59.355 156.41 58.3873C156.409 57.4223 155.921 56.6405 155.318 56.6386H103.739Z" fill="#E4E4E4"/>
<path d="M103.739 66.7919C103.135 66.7938 102.646 67.5798 102.647 68.5475C102.649 69.5125 103.137 70.2943 103.739 70.2962H155.318C155.923 70.2943 156.412 69.5083 156.41 68.5406C156.409 67.5756 155.921 66.7938 155.318 66.7919H103.739Z" fill="#E4E4E4"/>
<path d="M103.739 76.8224C103.135 76.8243 102.646 77.6103 102.647 78.578C102.649 79.543 103.137 80.3248 103.739 80.3267H125.934C126.538 80.3248 127.027 79.5388 127.026 78.5711C127.025 77.6061 126.536 76.8243 125.934 76.8224H103.739Z" fill="#E4E4E4"/>
<path d="M77.5502 82.3709C85.2802 82.3709 91.5466 76.0934 91.5466 68.3497C91.5466 60.606 85.2802 54.3285 77.5502 54.3285C69.8201 54.3285 63.5537 60.606 63.5537 68.3497C63.5537 76.0934 69.8201 82.3709 77.5502 82.3709Z" fill="#E4E4E4"/>
<path d="M367.366 117.33C367.267 118.097 367.337 118.877 367.571 119.614C367.805 120.351 368.198 121.028 368.722 121.597C369.245 122.166 369.887 122.613 370.602 122.906C371.316 123.2 372.086 123.332 372.858 123.295L379.853 140.748L385.41 132.715L377.915 117.373C377.767 116.079 377.15 114.884 376.182 114.015C375.213 113.146 373.96 112.663 372.66 112.658C371.359 112.653 370.102 113.125 369.127 113.986C368.151 114.847 367.525 116.037 367.366 117.33Z" fill="#FFB6B6"/>
<path d="M446.235 327.226H439.795L436.73 302.339L446.237 302.339L446.235 327.226Z" fill="#FFB6B6"/>
<path d="M447.878 333.48L427.11 333.479V333.216C427.11 331.069 427.962 329.009 429.478 327.491C430.994 325.972 433.05 325.119 435.194 325.119H435.194L447.878 325.119L447.878 333.48Z" fill="#302E44"/>
<path d="M425.159 327.021L419.019 325.073L423.595 300.42L432.657 303.295L425.159 327.021Z" fill="#FFB6B6"/>
<path d="M424.841 333.48L405.042 327.201L405.121 326.95C405.768 324.902 407.201 323.196 409.104 322.207C411.006 321.218 413.223 321.026 415.267 321.674L427.36 325.509L424.841 333.48Z" fill="#302E44"/>
<path d="M417.531 205.593C417.531 205.593 407.975 220.625 411.351 234.041C414.728 247.457 418.406 273.245 418.406 273.245L436.716 316.897L450.364 316.339L436.81 264.872L437.346 230.46C437.346 230.46 446.767 214.014 444.932 208.895C443.097 203.775 417.531 205.593 417.531 205.593Z" fill="#302E44"/>
<path d="M448.751 210.967C448.751 210.967 449.927 225.879 446.249 232.195C442.572 238.51 438.654 262.547 438.654 262.547L432.403 310.622L419.456 306.401L430.496 252.54L439.173 210.172L448.751 210.967Z" fill="#302E44"/>
<path d="M453.341 138.779L443.24 131.824L427.868 131.376L422.515 136.634L414.345 140.813L413.589 208.895C413.589 208.895 438.052 220.641 451.213 214.971L457.544 161.936C460.171 151.41 453.341 138.779 453.341 138.779Z" fill="#FFB800"/>
<path d="M416.397 159.007H389.453L371.75 128.481L383.261 123.913L393.009 141.285L407.119 140.006L415.929 139.579C417.34 139.511 418.75 139.752 420.059 140.286C421.368 140.821 422.544 141.635 423.506 142.673C424.468 143.71 425.192 144.946 425.628 146.293C426.063 147.64 426.199 149.066 426.027 150.471C425.736 152.825 424.597 154.992 422.824 156.564C421.05 158.135 418.765 159.004 416.397 159.007Z" fill="#FFB800"/>
<path d="M436.808 125.77C444.169 125.77 450.136 119.792 450.136 112.418C450.136 105.044 444.169 99.066 436.808 99.066C429.447 99.066 423.479 105.044 423.479 112.418C423.479 119.792 429.447 125.77 436.808 125.77Z" fill="#FFB6B6"/>
<path d="M452.867 109.38C452.457 106.449 450.476 103.666 447.657 102.777C446.538 99.5205 443.572 97.1227 440.296 96.0774C437.261 95.1083 433.992 95.1756 431 96.2687C428.008 97.3618 425.463 99.419 423.764 102.117C423.514 102.512 422.743 103.483 422.764 103.954C422.791 104.552 423.706 105.17 424.165 105.548C425.303 106.429 426.53 107.188 427.827 107.812C432.619 110.301 431.024 114.213 430.959 118.646C430.927 120.8 431.645 122.639 433.479 123.87C436.125 125.646 439.912 124.939 442.792 124.226C446.059 123.418 448.775 120.542 450.638 117.77C452.288 115.315 453.276 112.311 452.867 109.38Z" fill="#302E44"/>
<path d="M452.96 156.162L458.146 213.15L441.483 212.254L452.96 156.162Z" fill="#FFB800"/>
</svg>
