<svg width="519" height="417" viewBox="0 0 519 417" fill="none" xmlns="http://www.w3.org/2000/svg">
<path d="M361.4 405.88L351.792 405.879L347.223 368.857H361.401L361.4 405.88Z" fill="#FFB6B6"/>
<path d="M361.143 402.745L350.886 398.576L350.592 398.456L344.929 402.745C341.731 402.745 338.665 404.015 336.404 406.274C334.143 408.533 332.873 411.596 332.872 414.791V415.182H363.847V402.745H361.143Z" fill="#38364F"/>
<path d="M448.203 393.401L439.605 397.682L418.984 366.584L431.675 360.265L448.203 393.401Z" fill="#FFB6B6"/>
<path d="M448.998 389.502L446.799 390.593L446.573 390.706L435.548 391.556L435.216 391.579L432.061 397.937C430.644 398.642 429.38 399.62 428.341 400.814C427.302 402.008 426.509 403.394 426.007 404.895C425.505 406.395 425.303 407.979 425.414 409.557C425.525 411.135 425.947 412.676 426.654 414.091L426.827 414.438L454.548 400.638L448.998 389.502Z" fill="#38364F"/>
<path d="M354.884 206.887L407.857 208.74L408.226 208.204C408.226 208.204 412.745 218.738 412.745 227.767C412.745 230.769 410.655 250.404 411.717 254.119C411.849 254.581 410.94 255.713 411.238 257.864C411.432 259.26 412.499 258.186 412.745 260.121C412.921 261.51 411.042 262.277 411.238 263.884C411.453 265.639 414.038 271.324 414.27 273.277C416.747 294.063 420.044 324.177 420.044 324.177C420.044 324.177 433.289 359.619 436.09 360.195C440.793 361.161 443.968 369.704 441.362 371.481C440.121 372.327 424.083 378.019 424.083 378.019C423.201 378.178 420.445 376.796 422.201 373.529C422.524 372.928 420.596 374.458 420.275 373.738C419.935 372.973 420.604 369.926 420.213 369.076C416.708 361.444 411.327 350.867 406.227 345.436C398.692 337.413 393.92 327.193 392.608 316.268L380.91 251.465L376.901 269.638L373.584 272.913L374.494 280.549L374.337 287.961L366.053 318.811C366.053 318.811 364.811 376.423 366.806 378.253C367.887 379.244 372.473 391.449 363.794 392.549L348.026 391.334C348.026 391.334 345.901 386.86 346.963 385.268C348.026 383.676 347.962 384.111 346.666 381.505C345.37 378.9 345.901 374.485 345.901 374.485C343.835 353.738 343.02 332.885 343.46 312.039C344.251 277.801 349.041 238.469 349.041 237.667C349.081 236.848 348.93 236.031 348.6 235.28V233.119L350.635 225.461L354.884 206.887Z" fill="#38364F"/>
<path d="M429.921 213.805C441.475 213.805 450.842 204.447 450.842 192.903C450.842 181.358 441.475 172 429.921 172C418.367 172 409 181.358 409 192.903C409 204.447 418.367 213.805 429.921 213.805Z" fill="#00EA99"/>
<path d="M418 190.626V190.234C423.72 188.664 426.708 193.679 427.488 196.383L436.975 185H440L427.9 199H426.25C424.6 192.406 420.062 190.67 418 190.626Z" fill="white" stroke="white"/>
<path d="M439.775 214.555C439.979 213.7 439.993 212.811 439.815 211.95C439.638 211.089 439.274 210.278 438.749 209.573C438.224 208.868 437.551 208.287 436.777 207.87C436.003 207.453 435.146 207.211 434.268 207.16L423.549 170.669L416.297 179.077L427.834 213.244C427.847 214.724 428.403 216.147 429.396 217.244C430.389 218.342 431.75 219.037 433.222 219.198C434.694 219.36 436.174 218.976 437.382 218.12C438.589 217.265 439.441 215.996 439.775 214.555Z" fill="#FFB8B8"/>
<path d="M432.212 196.752L430.819 191.65L432.415 188.603L432.295 188.249L431.813 186.88L429.313 184.878L430.209 182.328L427.046 173.351L426.27 171.794L408.113 135.368L403.76 126.633L402.751 125.053L399.611 120.132L395.318 113.413C394.636 112.339 393.746 111.411 392.702 110.684C391.657 109.956 390.478 109.444 389.233 109.176C388.831 109.088 388.423 109.025 388.013 108.988L387.72 108.966C386.987 108.925 386.251 108.968 385.528 109.094H385.513C384.238 109.315 383.023 109.796 381.943 110.508C381.093 111.058 380.336 111.738 379.699 112.525C378.233 114.342 377.471 116.625 377.553 118.958L377.688 122.63L377.824 125.971L384.195 137.483L384.609 138.235L384.617 138.258L404.22 173.697L410.131 184.382L411.028 186.007L415.004 188.641L413.942 191.289L414.251 195.412L417.632 197.963L422.535 202.937L422.731 203.343L424.237 202.583L424.38 202.508L424.719 202.41L429.38 201.003L432.212 200.153L432.302 200.123L433.078 199.927L432.212 196.752Z" fill="#FFB800"/>
<path d="M197.599 82.4964H196.093V24.5269H305.032V26.0317H197.599V82.4964Z" fill="white"/>
<path d="M321.921 41.805C333.475 41.805 342.842 32.4467 342.842 20.9025C342.842 9.35838 333.475 0 321.921 0C310.367 0 301 9.35838 301 20.9025C301 32.4467 310.367 41.805 321.921 41.805Z" fill="#00EA99"/>
<path d="M311 18.6262V18.2336C316.72 16.6636 319.708 21.6791 320.488 24.3832L329.975 13H333L320.9 27H319.25C317.6 20.4056 313.062 18.6698 311 18.6262Z" fill="white" stroke="white"/>
<path d="M123.796 223.235H122.29V281.204H231.23V279.7H123.796V223.235Z" fill="white"/>
<path d="M247.935 302.146C259.49 302.146 268.856 292.787 268.856 281.243C268.856 269.699 259.49 260.341 247.935 260.341C236.381 260.341 227.015 269.699 227.015 281.243C227.015 292.787 236.381 302.146 247.935 302.146Z" fill="#00EA99"/>
<path d="M237 279.626V279.234C242.72 277.664 245.708 282.679 246.488 285.383L255.975 274H259L246.9 288H245.25C243.6 281.406 239.062 279.67 237 279.626Z" fill="white" stroke="white"/>
<path d="M413.498 225.367C413.52 226.951 413.265 228.527 412.745 230.024L412.632 230.002C399.256 232.313 387.325 232.691 381.805 224.488C374.604 215.327 364.699 215.431 353.65 219.453L352.339 218.038L350.11 215.638L352.159 213.32L350.11 208.851L351.82 203.336L354.004 202.937L353.416 198.189L352.498 195.412L355.194 192.455L357.483 185.074L355.834 169.627C353.577 148.453 357.95 127.101 368.35 108.514L374.608 102.901L377.206 100.569L380.693 94.0676L384.376 94.4965L394.347 95.6477L394.686 96.4604L397.133 102.359L410.026 116.197L409.446 122.035L409.19 124.609L409.002 126.46L408.113 135.369L404.491 171.764L404.22 173.697L401.305 194.622C406.042 199.197 410.229 208.008 412.24 216.059C412.466 216.955 411.826 217.865 411.992 218.738C412.225 219.972 413.242 221.146 413.355 222.297C413.46 223.317 413.508 224.342 413.498 225.367Z" fill="#FFB800"/>
<path d="M387.962 91.7374C397.526 91.7374 405.28 83.9906 405.28 74.4344C405.28 64.8782 397.526 57.1313 387.962 57.1313C378.397 57.1313 370.644 64.8782 370.644 74.4344C370.644 83.9906 378.397 91.7374 387.962 91.7374Z" fill="#FFB6B6"/>
<path d="M408.838 69.7138C407.813 66.5212 405.002 63.8199 401.665 63.4669C401.917 61.3464 401.583 59.1973 400.698 57.2535C399.813 55.3096 398.412 53.6456 396.646 52.4427C394.88 51.2397 392.817 50.5438 390.683 50.4309C388.549 50.3179 386.424 50.7922 384.541 51.8021C384.141 51.3217 383.623 50.9526 383.039 50.7306C382.454 50.5086 381.822 50.4412 381.204 50.535C379.967 50.7385 378.802 51.2487 377.814 52.0188C375.36 53.8118 373.439 56.2359 372.255 59.0331C371.071 61.8303 370.669 64.896 371.09 67.9037C371.082 66.378 371.759 69.3298 373.699 69.5907C375.315 69.9156 376.854 70.5497 378.23 71.4582C379.606 72.3666 381.14 73.009 382.752 73.3521C384.38 73.59 384.8 80.109 383.637 84.3076C383.417 85.1033 383.305 86.1709 384.039 86.5501C384.943 87.0171 385.857 85.843 386.868 85.7285C387.321 85.7214 387.76 85.8905 388.092 86.2003C388.423 86.51 388.621 86.9362 388.644 87.389C388.645 87.8432 388.537 88.2912 388.33 88.6955C388.123 89.0998 387.822 89.4487 387.452 89.7133C386.709 90.235 385.886 90.6333 385.015 90.8928L385.307 91.3069C385.563 91.7804 385.975 92.1503 386.474 92.3533C386.972 92.5563 387.526 92.5797 388.04 92.4196C389.198 93.8153 401.132 89.9399 401.714 87.3926C404.213 85.1427 406.289 82.4636 407.843 79.4823C409.395 76.468 409.751 72.9789 408.838 69.7138Z" fill="#38364F"/>
<path d="M422.843 122.412C422.602 124.428 420.712 125.933 418.724 126.354C417.713 126.549 416.676 126.566 415.659 126.407C414.665 126.26 413.684 126.041 412.722 125.752C411.532 125.414 410.354 125.033 409.19 124.609C405.862 123.422 402.655 121.923 399.61 120.132C397.308 118.789 395.104 117.285 393.013 115.632C391.929 114.774 390.877 113.879 389.858 112.946L391.131 113.548C389.993 112.021 388.856 110.493 387.719 108.966C386.62 107.491 385.523 106.016 384.428 104.541C384.36 104.451 384.308 104.391 384.285 104.361V104.353C383.78 103.684 383.283 103.014 382.786 102.344C381.288 100.335 379.812 97.3857 381.536 95.5724C381.904 95.2193 382.35 94.9581 382.839 94.8104C383.327 94.6626 383.843 94.6324 384.345 94.7221C384.886 94.7923 385.409 94.9606 385.889 95.2187C387.207 96.0711 388.324 97.1979 389.165 98.5219C390.34 96.8139 392.622 96.1819 394.685 96.4603C394.798 96.4678 394.904 96.4828 395.009 96.4979C397.155 96.8666 398.082 95.7078 399.942 96.844C400.808 97.3707 401.335 100.079 402.201 100.606C402.691 100.907 404.505 101.359 405.002 101.667C405.982 102.269 405.733 104.519 406.72 105.121C407.45 105.565 409.408 104.368 410.139 104.812C410.907 105.286 411.976 108.416 412.744 108.883C414.273 109.823 415.501 108.108 417.029 109.041C418.995 110.252 421.088 111.599 421.917 113.751C422.647 115.647 421.706 118.243 419.891 118.785C420.758 118.888 421.551 119.325 422.102 120.001C422.653 120.678 422.918 121.542 422.843 122.412Z" fill="#FFB800"/>
<path opacity="0.2" d="M409.19 124.609L409.002 126.46C406.867 126.254 404.767 125.782 402.751 125.053C400.097 124.163 397.794 122.452 396.177 120.17C395.152 118.635 394.083 117.107 393.014 115.632C391.236 113.164 389.474 110.862 388.013 108.988C386.228 106.724 384.888 105.083 384.428 104.542C384.361 104.451 384.308 104.391 384.285 104.361L384.263 104.338L384.285 104.353C393.234 115.669 401.686 122.194 409.446 122.036C409.446 122.036 410.357 125.03 409.19 124.609Z" fill="black"/>
<path d="M327.302 33.9949C327.082 34.8455 327.051 35.7341 327.211 36.5981C327.372 37.462 327.72 38.2803 328.231 38.9953C328.742 39.7102 329.404 40.3045 330.17 40.7363C330.936 41.168 331.788 41.4267 332.665 41.4941L342.676 78.1859L350.089 69.9194L339.215 35.5356C339.231 34.0563 338.703 32.6226 337.732 31.5063C336.76 30.3899 335.412 29.6684 333.944 29.4785C332.475 29.2886 330.988 29.6434 329.764 30.4758C328.54 31.3082 327.664 32.5603 327.302 33.9949Z" fill="#FFB8B8"/>
<path d="M386.078 127.822L386.01 124.481L379.699 112.525L379.465 112.088L379.45 112.066L374.608 102.901L351.242 58.6387L348.732 57.7177L348.857 54.1223L348.732 50.1934L345.717 48.1739L344.432 45.739L342.609 46.2582H342.602L342.549 46.2732L334.581 48.508H334.574L332.917 49.441L331.411 53.9556L331.081 56.0929L331.411 59.975L335.176 60.7274L333.929 64.7081L337.714 76.1598C342.451 96.1744 348.92 113.45 360.088 123.315L361.007 124.819L368.274 136.7C369.266 138.326 370.717 139.621 372.445 140.423C374.172 141.225 376.099 141.498 377.982 141.207H377.989C379.268 141.009 380.492 140.553 381.589 139.868C382.601 139.245 383.485 138.435 384.195 137.483C385.492 135.761 386.179 133.656 386.145 131.501L386.078 127.822Z" fill="#FFB800"/>
<path d="M62.98 115.655C62.9675 104.344 67.2925 93.4588 75.0659 85.2364L48.389 48.5514C47.2908 47.04 45.8796 45.7828 44.2514 44.8654C42.6232 43.948 40.8163 43.392 38.9537 43.2351C37.091 43.0783 35.2164 43.3243 33.4575 43.9565C31.6986 44.5886 30.0967 45.5921 28.7609 46.8985C19.6225 55.7989 12.3675 66.4435 7.42694 78.2C2.48635 89.9565 -0.0391554 102.585 0.000458905 115.336C0.000533313 120.151 0.359819 124.959 1.07531 129.721C1.356 131.603 2.04433 133.402 3.0923 134.992C4.14027 136.581 5.52265 137.923 7.14304 138.924C8.74514 139.915 10.5443 140.544 12.4149 140.769C14.2856 140.993 16.1828 140.807 17.9742 140.224L64.0372 125.27C63.3362 122.113 62.9817 118.889 62.98 115.655Z" fill="#F2F2F2"/>
<path d="M65.4293 130.191L17.5405 145.737C15.7682 146.31 14.1398 147.256 12.7655 148.512C11.3912 149.768 10.3033 151.305 9.57542 153.018C8.84753 154.731 8.49669 156.58 8.54667 158.441C8.59666 160.301 9.04629 162.129 9.86512 163.8C16.6849 177.624 26.738 189.603 39.1733 198.722C51.6087 207.84 66.0601 213.831 81.3041 216.187C83.1606 216.472 85.0569 216.353 86.8629 215.837C88.6688 215.321 90.3417 214.421 91.7668 213.198C93.19 211.979 94.3322 210.466 95.115 208.764C95.8978 207.062 96.3027 205.211 96.3019 203.338V158.649C89.2093 156.811 82.6805 153.251 77.295 148.287C71.9095 143.322 67.8337 137.107 65.4293 130.191Z" fill="#E6E6E6"/>
<path d="M209.443 158.113C208.635 156.195 207.422 154.473 205.888 153.065C204.354 151.657 202.534 150.595 200.553 149.952L148.324 132.997C145.275 140.161 140.396 146.398 134.175 151.085C127.954 155.772 120.609 158.744 112.877 159.702V214.072C112.878 216.159 113.331 218.221 114.204 220.117C115.077 222.013 116.35 223.698 117.936 225.056C119.521 226.415 121.382 227.415 123.391 227.988C125.399 228.561 127.508 228.693 129.572 228.376C146.542 225.754 162.629 219.084 176.472 208.933C190.315 198.782 201.506 185.448 209.098 170.06C210.01 168.21 210.514 166.186 210.573 164.124C210.633 162.062 210.247 160.012 209.443 158.113Z" fill="white"/>
<path d="M196.468 33.4029C194.981 31.9485 193.198 30.8314 191.239 30.1276C189.281 29.4239 187.195 29.15 185.121 29.3246C183.048 29.4992 181.036 30.1182 179.224 31.1395C177.411 32.1607 175.84 33.5603 174.618 35.2428L138.91 84.3473C143.018 88.4616 146.275 93.344 148.494 98.7157C150.713 104.087 151.852 109.843 151.844 115.655C151.844 116.736 151.792 117.804 151.716 118.866L208.476 137.292C210.483 137.939 212.607 138.142 214.7 137.885C216.793 137.628 218.805 136.919 220.596 135.806C222.386 134.693 223.913 133.203 225.068 131.441C226.224 129.678 226.981 127.685 227.287 125.6C228.084 120.299 228.484 114.946 228.484 109.586C228.528 95.3922 225.716 81.3343 220.216 68.2471C214.716 55.16 206.64 43.3107 196.468 33.4029Z" fill="#00EA99"/>
<path d="M107.412 71.2615C115.057 71.2529 122.573 73.2248 129.227 76.9848L151.021 47.0136C152.132 45.4873 152.898 43.7382 153.267 41.8872C153.636 40.0362 153.598 38.1273 153.156 36.2923C152.729 34.4922 151.916 32.8063 150.773 31.3508C149.63 29.8953 148.184 28.705 146.536 27.862C133.08 21.0247 118.202 17.4503 103.106 17.4283C88.01 17.4064 73.1212 20.9375 59.6455 27.7356C57.9461 28.5923 56.4535 29.8079 55.271 31.2982C54.0884 32.7885 53.2443 34.5179 52.7972 36.3665C52.3561 38.1887 52.3169 40.0849 52.6823 41.9238C53.0476 43.7626 53.8088 45.5001 54.913 47.0158L79.637 81.0159C87.5089 74.691 97.3106 71.2487 107.412 71.2615Z" fill="#E6E6E6"/>
</svg>
